<svg id="Livello_1" data-name="Livello 1" xmlns="http://www.w3.org/2000/svg" viewBox="0 0 970.48 595.28"><defs><style>.cls-1{fill:#757679;}.cls-2{fill:#1c256a;}</style></defs><path class="cls-1" d="M308.34,394.41a33.46,33.46,0,0,1-18-5.27h0L150.65,299.87a41.88,41.88,0,0,1,0-70.58L290.32,140a33.51,33.51,0,1,1,36.09,56.47L219.89,264.58l106.52,68.08a33.51,33.51,0,0,1-18.07,61.75ZM300,374a15.58,15.58,0,0,0,16.78-26.26L186.59,264.58l130.17-83.2A15.58,15.58,0,1,0,300,155.13L160.3,244.4a24,24,0,0,0,0,40.36Z"/><path class="cls-1" d="M388.62,372.91c0-13.3,10.06-22.38,23-22.38a19.81,19.81,0,0,1,18.1,10.57l-7.91,3.9a11.73,11.73,0,0,0-10.19-6.3c-7.85,0-13.55,6-13.55,14.21s5.7,14.21,13.55,14.21a11.61,11.61,0,0,0,10.19-6.3l7.91,3.83c-3.11,5.39-8.56,10.64-18.1,10.64C398.68,395.29,388.62,386.21,388.62,372.91Z"/><path class="cls-1" d="M435.3,394.51V351.24h30.62v8.11h-21.4v9.15h21v8.11h-21v9.79h21.4v8.11Z"/><path class="cls-1" d="M503.73,394.51,483.1,366.29v28.22h-9.21V351.24h9.47l20.05,27.18V351.24h9.21v43.27Z"/><path class="cls-1" d="M530.33,394.51V359.35H517.68v-8.11H552.2v8.11H539.61v35.16Z"/><path class="cls-1" d="M581.68,394.51l-8.49-15.37h-6.75v15.37h-9.21V351.24h20.24c9,0,14.53,5.9,14.53,13.95,0,7.66-4.8,11.74-9.47,12.84l9.73,16.48Zm.91-29.32c0-3.63-2.79-5.84-6.48-5.84h-9.67V371h9.67C579.8,371,582.59,368.82,582.59,365.19Z"/><path class="cls-1" d="M596.32,372.91c0-13,9.54-22.38,22.58-22.38s22.64,9.34,22.64,22.38S632,395.29,618.9,395.29,596.32,386,596.32,372.91Zm35.75,0c0-8.11-5.2-14.21-13.17-14.21s-13.11,6.1-13.11,14.21,5.13,14.21,13.11,14.21S632.07,381,632.07,372.91Z"/><path class="cls-1" d="M428.33,464.22v-30.3l-12.2,30.3h-4l-12.2-30.3v30.3H390.7V421h12.91l10.51,26.14L424.63,421h13v43.27Z"/><path class="cls-1" d="M446.58,464.22V421H477.2v8.11H455.79v9.14h21v8.11h-21v9.8H477.2v8.11Z"/><path class="cls-1" d="M485.17,464.22V421h17.06c13.56,0,23,8.62,23,21.67s-9.41,21.6-23,21.6Zm30.62-21.6c0-7.66-4.67-13.56-13.56-13.56h-7.85v27.05h7.85C510.79,456.11,515.79,450,515.79,442.62Z"/><path class="cls-1" d="M531.93,464.22V421h9.22v43.27Z"/><path class="cls-1" d="M547.74,442.62c0-13.3,10.06-22.38,23-22.38a19.8,19.8,0,0,1,18.1,10.57L581,434.7a11.73,11.73,0,0,0-10.18-6.29c-7.86,0-13.56,6-13.56,14.21s5.7,14.2,13.56,14.2A11.6,11.6,0,0,0,581,450.53l7.92,3.83c-3.12,5.38-8.57,10.64-18.1,10.64C557.8,465,547.74,455.92,547.74,442.62Z"/><path class="cls-1" d="M591.51,442.62c0-13.05,9.53-22.38,22.57-22.38s22.64,9.33,22.64,22.38S627.19,465,614.08,465,591.51,455.66,591.51,442.62Zm35.74,0c0-8.12-5.19-14.21-13.17-14.21S601,434.5,601,442.62s5.13,14.2,13.1,14.2S627.25,450.66,627.25,442.62Z"/><path class="cls-2" d="M164.86,394.41a33.52,33.52,0,0,1-18.08-61.75l106.53-68.08L146.78,196.49A33.51,33.51,0,0,1,182.88,140l139.68,89.27a41.88,41.88,0,0,1,0,70.58L182.88,389.13A33.33,33.33,0,0,1,164.86,394.41Zm0-241.74a16.27,16.27,0,0,0-3.38.37,15.58,15.58,0,0,0-5,28.34l130.17,83.2L156.44,347.77A15.58,15.58,0,0,0,173.22,374l139.67-89.27a23.95,23.95,0,0,0,0-40.36L173.22,155.13A15.47,15.47,0,0,0,164.86,152.67Z"/><path class="cls-2" d="M392.38,215.57h27q14.48,0,24,5.79a36.14,36.14,0,0,1,14.23,16,60.3,60.3,0,0,1,0,46.82,36.32,36.32,0,0,1-14.23,16q-9.5,5.83-24,5.83h-27Zm20.09,18V288.1h5.07q7.88,0,13-3.53a21.48,21.48,0,0,0,7.71-9.7,36.19,36.19,0,0,0,2.57-14,36.8,36.8,0,0,0-2.54-14,21.4,21.4,0,0,0-7.71-9.77q-5.18-3.56-13.06-3.56Z"/><path class="cls-2" d="M499.82,215.57h57.65v17.68H520v18.86h37.09v17.2H520v19.06h37.5v17.69H499.82Z"/><path class="cls-2" d="M594.63,215.57h20.23v72.8h32.9v17.69H594.63Z"/><path class="cls-2" d="M690.09,233.25h-21.6V215.57H732v17.68H710.31v72.81H690.09Z"/><path class="cls-2" d="M785.64,215.57h20.09l35.65,90.49H819.85l-6.65-18.31H778.31l-6.79,18.31h-21.6Zm-.68,54.5h21.52L795.85,239.9h-.2Z"/></svg>