<svg id="Livello_1" data-name="Livello 1" xmlns="http://www.w3.org/2000/svg" viewBox="0 0 682.46 841.89"><defs><style>.cls-1{fill:#757679;}.cls-2{fill:#1c256a;}</style></defs><path class="cls-1" d="M411.14,419.37A34.23,34.23,0,0,1,392.7,414h0L249.82,322.65a42.84,42.84,0,0,1,0-72.19L392.7,159.14a34.28,34.28,0,1,1,36.92,57.76l-109,69.65,109,69.65a34.28,34.28,0,0,1-18.48,63.17Zm-8.56-20.86a15.93,15.93,0,1,0,17.16-26.85L286.59,286.55l133.15-85.1a15.94,15.94,0,0,0-17.16-26.86L259.7,265.91a24.49,24.49,0,0,0,0,41.28Z"/><path class="cls-2" d="M264.36,419.37a34.29,34.29,0,0,1-18.49-63.17l109-69.65-109-69.65a34.28,34.28,0,1,1,36.93-57.76l142.88,91.32a42.84,42.84,0,0,1,0,72.19L282.8,414A34.23,34.23,0,0,1,264.36,419.37Zm0-247.29a15.65,15.65,0,0,0-3.45.38,15.93,15.93,0,0,0-5.16,29l133.16,85.1L255.75,371.66a15.94,15.94,0,0,0,17.17,26.85l142.87-91.32a24.49,24.49,0,0,0,0-41.28L272.92,174.59A15.85,15.85,0,0,0,264.36,172.08Z"/><path class="cls-2" d="M152.35,467.51H175.2q12.23,0,20.26,4.9a30.55,30.55,0,0,1,12,13.54,51,51,0,0,1,0,39.61,30.73,30.73,0,0,1-12,13.57q-8,4.92-20.26,4.93H152.35Zm17,15.2v46.15h4.29a19,19,0,0,0,11-3,18.15,18.15,0,0,0,6.52-8.21,30.5,30.5,0,0,0,2.18-11.83A31.14,31.14,0,0,0,191.2,494a18.08,18.08,0,0,0-6.52-8.26,19,19,0,0,0-11.05-3Z"/><path class="cls-2" d="M241.93,467.51H290.7v15H259v15.95h31.37V513H259V529.1H290.7v15H241.93Z"/><path class="cls-2" d="M320.58,467.51h17.11V529.1h27.83v15H320.58Z"/><path class="cls-2" d="M399.29,482.47H381v-15h53.69v15H416.4v61.59H399.29Z"/><path class="cls-2" d="M478.17,467.51h17l30.15,76.55H507.1l-5.62-15.49H472l-5.74,15.49H448Zm-.58,46.1h18.2l-9-25.51h-.18Z"/><path class="cls-1" d="M225.51,607.76c0-11.9,9-20,20.62-20a17.74,17.74,0,0,1,16.21,9.47l-7.08,3.48a10.53,10.53,0,0,0-9.13-5.63c-7,0-12.14,5.41-12.14,12.72s5.12,12.73,12.14,12.73a10.42,10.42,0,0,0,9.13-5.64l7.08,3.43c-2.78,4.82-7.67,9.53-16.21,9.53C234.52,627.81,225.51,619.67,225.51,607.76Z"/><path class="cls-1" d="M267.34,627.11V588.36h27.42v7.26H275.59v8.19h18.77v7.26H275.59v8.78h19.17v7.26Z"/><path class="cls-1" d="M328.65,627.11l-18.48-25.28v25.28h-8.25V588.36h8.48l18,24.34V588.36h8.25v38.75Z"/><path class="cls-1" d="M352.49,627.11V595.62H341.17v-7.26h30.9v7.26H360.8v31.49Z"/><path class="cls-1" d="M398.52,627.11l-7.62-13.77h-6v13.77h-8.25V588.36h18.13c8.07,0,13,5.29,13,12.49,0,6.86-4.3,10.52-8.48,11.5L408,627.11Zm.81-26.26c0-3.25-2.5-5.23-5.81-5.23h-8.66v10.46h8.66C396.83,606.08,399.33,604.1,399.33,600.85Z"/><path class="cls-1" d="M411.65,607.76c0-11.67,8.54-20,20.22-20s20.27,8.37,20.27,20-8.54,20-20.27,20S411.65,619.44,411.65,607.76Zm32,0c0-7.26-4.65-12.72-11.79-12.72s-11.74,5.46-11.74,12.72,4.59,12.73,11.74,12.73S443.66,615,443.66,607.76Z"/><path class="cls-1" d="M263.23,688V660.88L252.3,688h-3.6l-10.92-27.13V688h-8.25V649.26h11.56l9.41,23.41,9.41-23.41h11.62V688Z"/><path class="cls-1" d="M279.59,688V649.26H307v7.26H287.85v8.19h18.76V672H287.85v8.78H307V688Z"/><path class="cls-1" d="M314.17,688V649.26h15.28c12.14,0,20.57,7.72,20.57,19.41S341.59,688,329.45,688Zm27.42-19.34c0-6.86-4.18-12.15-12.14-12.15h-7v24.23h7C337.12,680.75,341.59,675.23,341.59,668.67Z"/><path class="cls-1" d="M356.08,688V649.26h8.25V688Z"/><path class="cls-1" d="M370.27,668.67c0-11.92,9-20,20.63-20a17.73,17.73,0,0,1,16.2,9.47L400,661.57a10.51,10.51,0,0,0-9.12-5.63c-7,0-12.15,5.4-12.15,12.73s5.12,12.72,12.15,12.72a10.39,10.39,0,0,0,9.12-5.64l7.08,3.43c-2.78,4.82-7.66,9.52-16.2,9.52C379.28,688.7,370.27,680.57,370.27,668.67Z"/><path class="cls-1" d="M409.49,668.67c0-11.69,8.54-20,20.22-20S450,657,450,668.67s-8.54,20-20.28,20S409.49,680.34,409.49,668.67Zm32,0c0-7.27-4.64-12.73-11.79-12.73S418,661.4,418,668.67s4.59,12.72,11.74,12.72S441.5,675.87,441.5,668.67Z"/></svg>